<svg width="200" height="40" viewBox="0 0 200 40" fill="none" xmlns="http://www.w3.org/2000/svg">
  <!-- Google "G" Logo -->
  <g>
    <path d="M17.5 8C12.8 8 9 11.8 9 16.5c0 4.7 3.8 8.5 8.5 8.5 2.4 0 4.5-1 6-2.6l-2.6-2.6c-0.8 0.8-1.9 1.3-3.4 1.3-2.8 0-5-2.2-5-5s2.2-5 5-5c1.5 0 2.7.6 3.6 1.5l2.2-2.2C20.4 9.2 19 8 17.5 8z" fill="#4285F4"/>
    <path d="M17.5 25c-0.8 0-1.5-.2-2.2-.6l2.6-2.6c0.8 0.8 1.9 1.3 3.4 1.3 2.8 0 5-2.2 5-5 0-0.8-0.2-1.5-0.5-2.2l2.6-2.6C27.2 13.8 28 15.1 28 16.5c0 4.7-3.8 8.5-8.5 8.5h-2z" fill="#34A853"/>
    <path d="M9 16.5c0-1.1.3-2.1.8-3l-3-3C5.1 12.1 4 14.1 4 16.5c0 2.4 1.1 4.4 2.8 5.8l3-3c-0.5-0.9-0.8-1.9-0.8-2.8z" fill="#FBBC04"/>
    <path d="M17.5 4c2.4 0 4.4 1.1 5.8 2.8l-3 3c-0.9-0.5-1.9-0.8-2.8-0.8-2.8 0-5 2.2-5 5 0 0.9 0.3 1.9 0.8 2.8l-3 3C7.1 20.4 4 18.4 4 16.5c0-4.7 3.8-8.5 8.5-8.5h5z" fill="#EA4335"/>
  </g>
  <!-- AdMob text -->
  <text x="38" y="28" font-family="'Google Sans', Arial, sans-serif" font-size="20" font-weight="500" fill="#5F6368">AdMob</text>
</svg>
