<svg width="200" height="40" viewBox="0 0 200 40" fill="none" xmlns="http://www.w3.org/2000/svg">
  <!-- Vungle Logo - Play button style -->
  <path d="M20 8C13.4 8 8 13.4 8 20s5.4 12 12 12c3.3 0 6.2-1.3 8.4-3.4l-3.6-3.6c-1.1 1.1-2.6 1.8-4.8 1.8-3.9 0-7-3.1-7-7s3.1-7 7-7c2.1 0 3.8.8 5 2.1l3-3C25.2 9.3 22.3 8 20 8z" fill="#FF6C37"/>
  <path d="M16 14v12l8-6-8-6z" fill="white"/>
  <!-- Vungle text -->
  <text x="38" y="28" font-family="Arial, sans-serif" font-size="19" font-weight="700" fill="#1A1A1A">Vungle</text>
</svg>
